:SAMPLES-PER-SECOND 30
:FULLY-SPECIFIED
:DEGREES
269
root  -45.367 34.1537 21.4386 -168.79 39.2566 -178.454
RightUpLeg  -11.5396 -26.5263 -5.88249
RightLeg  19.353 -15.3472 -4.24181
RightFoot  5.56495 0.0910671 -1.26258
RightToes  -34.7078 -0.177646 -0.283318
Spine  0.224125 3.27756 -3.11502
Spine1  0.232922 6.88179 -5.57765
HEad  -55.395 17.1859 -3.86676
LeftShoulder1  -1.94126e-019 -3.10601e-018 -2.51263e-017
LeftArm  -28.504 28.5241 -71.3948
LeftForeArm  21.444 -8.67092 -1.50367
LeftHand  -0.727941 -0.275969 14.9941
RightShoulder  -4.96962e-017 0 -2.36833e-017
RightArm  -12.7682 -17.3434 80.2759
RightForeArm  48.31 38.9761 6.08094
RightHand  -0.419885 -0.641324 -10.2494
LeftUpLeg  -26.4511 -2.94579 2.14427
LeftLeg  28.0989 7.72129 3.4862
LeftFoot  0.0912823 -3.94403e-005 0.211453
LeftToes  -21.1303 2.32378e-006 -5.43956e-008
270
root  -45.2875 34.1839 21.2541 -169.029 40.7053 -177.542
RightUpLeg  -10.9064 -25.3126 -5.85877
RightLeg  19.6692 -15.0547 -4.25163
RightFoot  6.67785 0.127482 -1.57111
RightToes  -35.7027 -0.185097 -0.289583
Spine  0.202816 3.27789 -3.1254
Spine1  0.158172 6.75958 -5.5367
HEad  -54.817 18.3156 -2.72678
LeftShoulder1  -1.94126e-019 -3.10601e-018 -2.51263e-017
LeftArm  -29.5928 24.1409 -71.8868
LeftForeArm  20.0209 -10.2264 -1.77712
LeftHand  -0.740984 -0.429148 14.871
RightShoulder  -4.96962e-017 0 -2.36833e-017
RightArm  -11.1799 -16.1644 80.6976
RightForeArm  48.729 41.7009 6.82338
RightHand  -0.465481 -0.357113 -10.7505
LeftUpLeg  -25.3282 -2.2744 2.57624
LeftLeg  28.6666 8.43979 3.90824
LeftFoot  -0.631824 -0.000464208 0.0772926
LeftToes  -20.0489 2.32378e-006 -5.43956e-008
271
root  -45.1818 34.2495 21.069 -169.291 42.3028 -176.472
RightUpLeg  -10.0566 -24.1697 -5.82786
RightLeg  19.7639 -14.3434 -4.0814
RightFoot  8.33524 0.186564 -1.9466
RightToes  -37.5754 -0.19941 -0.30102
Spine  0.143035 3.38364 -3.0444
Spine1  0.0281345 6.9082 -5.38155
HEad  -53.9215 19.1773 -2.54385
LeftShoulder1  -1.94126e-019 -3.10601e-018 -2.51263e-017
LeftArm  -30.3387 20.6366 -72.3375
LeftForeArm  15.2597 -15.7608 -2.75537
LeftHand  -0.631355 0.30644 14.464
RightShoulder  -4.96962e-017 0 -2.36833e-017
RightArm  -9.34594 -15.4124 80.9091
RightForeArm  49.8448 44.0006 7.45821
RightHand  -0.505057 -0.168454 -11.259
LeftUpLeg  -23.7555 -1.12626 3.07659
LeftLeg  28.7508 8.92937 4.14849
LeftFoot  -1.19915 -0.00208635 -0.0378531
LeftToes  -19.1417 2.32378e-006 -5.43956e-008
272
root  -45.0659 34.3193 20.8685 -169.626 43.9258 -175.461
RightUpLeg  -9.28679 -23.7241 -5.96128
RightLeg  20.1571 -12.9008 -3.7751
RightFoot  9.82577 0.231652 -2.08781
RightToes  -39.0886 -0.211244 -0.309916
Spine  0.0453179 3.45318 -2.97771
Spine1  -0.163842 7.03211 -5.2551
HEad  -53.3385 18.8608 -1.39655
LeftShoulder1  -1.94126e-019 -3.10601e-018 -2.51263e-017
LeftArm  -30.8117 18.4056 -72.5553
LeftForeArm  11.5037 -26.5059 -5.04129
LeftHand  -0.459103 1.78069 14.6727
RightShoulder  -4.96962e-017 0 -2.36833e-017
RightArm  -7.31647 -15.03 80.9021
RightForeArm  51.5131 45.8124 7.95011
RightHand  -0.568001 0.341044 -11.5747
LeftUpLeg  -21.9172 0.0847169 3.52162
LeftLeg  28.5085 9.36318 4.30009
LeftFoot  -1.74873 -0.00474667 -0.149495
LeftToes  -18.0545 2.32378e-006 -5.43956e-008
273
root  -44.9722 34.4131 20.6762 -169.819 45.8094 -174.731
RightUpLeg  -8.98899 -23.7466 -6.25388
RightLeg  20.586 -10.8321 -3.26769
RightFoot  11.3191 0.259316 -2.02035
RightToes  -40.6863 -0.223988 -0.318966
Spine  -0.257756 3.47495 -2.95736
Spine1  -0.756999 7.0633 -5.24419
HEad  -52.6895 17.0581 -0.440115
LeftShoulder1  -1.94126e-019 -3.10601e-018 -2.51263e-017
LeftArm  -31.4997 16.8734 -72.3579
LeftForeArm  12.4936 -38.9229 -8.24477
LeftHand  -0.42471 2.16427 15.1393
RightShoulder  -4.96962e-017 0 -2.36833e-017
RightArm  -5.7088 -15.1345 80.9592
RightForeArm  53.3521 47.0401 8.2634
RightHand  -0.613651 0.902496 -11.4275
LeftUpLeg  -20.0639 1.44341 3.73218
LeftLeg  27.6535 9.92077 4.3765
LeftFoot  -2.00371 -0.00660601 -0.21623
LeftToes  -17.5016 2.32378e-006 -5.43956e-008
274
root  -44.8616 34.511 20.4625 -170.219 47.9986 -174.275
RightUpLeg  -8.65345 -23.5011 -6.78788
RightLeg  20.9103 -8.84261 -2.72925
RightFoot  12.7664 0.272626 -1.85135
RightToes  -42.4663 -0.238479 -0.328626
Spine  -0.528321 3.42276 -2.95908
Spine1  -1.27589 6.95166 -5.27841
HEad  -52.857 13.8604 -0.513066
LeftShoulder1  -1.94126e-019 -3.10601e-018 -2.51263e-017
LeftArm  -31.4759 15.6302 -71.3249
LeftForeArm  16.7029 -52.1928 -13.2026
LeftHand  -0.404862 2.31331 15.1062
RightShoulder  -4.96962e-017 0 -2.36833e-017
RightArm  -4.77925 -15.4103 81.0863
RightForeArm  54.7069 47.6916 8.41733
RightHand  -0.653432 1.46441 -11.2054
LeftUpLeg  -17.901 2.73659 3.73943
LeftLeg  26.4546 10.7915 4.49046
LeftFoot  -2.12159 -0.00802588 -0.271913
LeftToes  -17.2953 2.32378e-006 -5.43956e-008
275
root  -44.7568 34.5954 20.2478 -170.962 50.4926 -174.068
RightUpLeg  -8.25849 -22.6815 -7.51476
RightLeg  21.2906 -7.23475 -2.28997
RightFoot  13.9578 0.271648 -1.64234
RightToes  -44.0461 -0.251585 -0.336819
Spine  -0.744109 3.32711 -2.87809
Spine1  -1.67835 6.76619 -5.15018
HEad  -53.906 8.82656 -1.27778
LeftShoulder1  -1.94126e-019 -3.10601e-018 -2.51263e-017
LeftArm  -30.9908 14.0429 -69.3233
LeftForeArm  24.2212 -63.6203 -20.881
LeftHand  -0.453051 1.85816 14.788
RightShoulder  -4.96962e-017 0 -2.36833e-017
RightArm  -4.5266 -15.9532 81.0748
RightForeArm  54.6725 47.8954 8.4965
RightHand  -0.660758 1.79172 -10.8377
LeftUpLeg  -15.4928 3.78414 3.5539
LeftLeg  25.2146 12.1752 4.75333
LeftFoot  -2.23556 -0.0100267 -0.352348
LeftToes  -16.6758 2.32378e-006 -5.43956e-008
276
root  -44.6796 34.6562 20.0392 -171.245 52.9822 -173.829
RightUpLeg  -8.30599 -21.5902 -7.96511
RightLeg  21.489 -6.0959 -1.9552
RightFoot  15.0118 0.269156 -1.47231
RightToes  -45.5936 -0.264638 -0.344491
Spine  -1.08559 3.14654 -2.73705
Spine1  -2.32753 6.42546 -4.91946
HEad  -55.1812 3.64185 -2.50434
LeftShoulder1  -1.94126e-019 -3.10601e-018 -2.51263e-017
LeftArm  -30.2353 11.9691 -66.2899
LeftForeArm  36.5156 -71.9832 -32.8095
LeftHand  -0.517793 1.40277 15.0271
RightShoulder  -4.96962e-017 0 -2.36833e-017
RightArm  -4.59061 -16.9897 80.7773
RightForeArm  53.0463 48.0491 8.65252
RightHand  -0.582402 1.17269 -10.4287
LeftUpLeg  -13.6023 4.59996 3.30954
LeftLeg  24.069 13.784 5.05679
LeftFoot  -2.45351 -0.013668 -0.476719
LeftToes  -16.0032 2.32378e-006 -5.43956e-008
277
root  -44.6162 34.6954 19.8281 -171.791 55.5362 -173.88
RightUpLeg  -8.32242 -20.5357 -8.51875
RightLeg  21.6054 -5.36893 -1.73543
RightFoot  15.6344 0.261644 -1.3393
RightToes  -46.1635 -0.269496 -0.347227
Spine  -1.40977 2.81589 -2.47748
Spine1  -2.92206 5.77088 -4.42495
HEad  -56.448 -0.690258 -4.31352
LeftShoulder1  -1.94126e-019 -3.10601e-018 -2.51263e-017
LeftArm  -29.6308 9.82536 -62.692
LeftForeArm  51.7179 -76.4967 -46.8288
LeftHand  -0.625429 0.951746 16.3486
RightShoulder  -4.96962e-017 0 -2.36833e-017
RightArm  -5.01993 -17.8397 80.1985
RightForeArm  51.8843 47.6337 8.57947
RightHand  -0.562579 1.15539 -10.1044
LeftUpLeg  -11.7611 5.59511 2.86558
LeftLeg  23.0148 15.2588 5.27214
LeftFoot  -2.70069 -0.0183541 -0.617067
LeftToes  -15.271 2.32378e-006 -5.43956e-008
278
root  -44.5628 34.7085 19.6248 -172.395 58.2243 -174.181
RightUpLeg  -8.5603 -19.4177 -9.01397
RightLeg  21.6881 -5.19298 -1.68718
RightFoot  15.8132 0.263362 -1.31026
RightToes  -45.8975 -0.267225 -0.345658
Spine  -1.61885 2.51921 -2.21974
Spine1  -3.2915 5.1818 -3.92074
HEad  -57.947 -3.99034 -5.46809
LeftShoulder1  -1.94126e-019 -3.10601e-018 -2.51263e-017
LeftArm  -29.3835 7.61218 -58.9115
LeftForeArm  63.7573 -78.3604 -57.7142
LeftHand  -0.778583 0.188794 17.4086
RightShoulder  -4.96962e-017 0 -2.36833e-017
RightArm  -6.00905 -18.6959 79.4705
RightForeArm  51.0935 47.8242 8.70258
RightHand  -0.472645 0.498273 -9.4033
LeftUpLeg  -10.2278 7.06105 2.29852
LeftLeg  22.1475 16.4303 5.39257
LeftFoot  -2.92115 -0.0231469 -0.74624
LeftToes  -14.6538 2.32378e-006 -5.43956e-008
279
root  -44.527 34.6941 19.431 -172.916 60.6502 -174.46
RightUpLeg  -8.78947 -18.8579 -9.34997
RightLeg  21.6151 -5.45632 -1.76454
RightFoot  15.7752 0.269641 -1.37921
RightToes  -45.1468 -0.260848 -0.342312
Spine  -1.81478 2.15726 -1.96896
Spine1  -3.65259 4.47462 -3.42282
HEad  -59.5297 -5.88308 -5.2926
LeftShoulder1  -1.94126e-019 -3.10601e-018 -2.51263e-017
LeftArm  -29.3116 5.96136 -55.2872
LeftForeArm  69.7185 -78.9921 -63.361
LeftHand  -0.757013 0.381953 17.5661
RightShoulder  -4.96962e-017 0 -2.36833e-017
RightArm  -6.84882 -20.0052 78.385
RightForeArm  50.9486 48.0702 8.80048
RightHand  -0.484728 0.528457 -9.59479
LeftUpLeg  -9.1001 8.24223 1.77285
LeftLeg  21.7438 17.5641 5.61751
LeftFoot  -3.19533 -0.0297071 -0.903496
LeftToes  -14.1518 2.32378e-006 -5.43956e-008
280
root  -44.4949 34.6666 19.1881 -173.788 62.326 -175.152
RightUpLeg  -8.73144 -20.2143 -9.98255
RightLeg  21.3643 -5.28758 -1.68466
RightFoot  15.606 0.257802 -1.31524
RightToes  -44.2679 -0.253443 -0.33794
Spine  -1.8976 1.50987 -1.68703
Spine1  -3.77914 3.18714 -2.83872
HEad  -60.997 -6.33712 -4.88207
LeftShoulder1  -1.94126e-019 -3.10601e-018 -2.51263e-017
LeftArm  -29.9992 5.43059 -52.5448
LeftForeArm  72.5677 -79.2671 -67.112
LeftHand  -0.707128 0.621472 17.2219
RightShoulder  -4.96962e-017 0 -2.36833e-017
RightArm  -8.11833 -20.9175 77.204
RightForeArm  49.62 48.4616 9.03114
RightHand  -0.428444 0.192636 -8.97055
LeftUpLeg  -8.17058 8.38247 0.983156
LeftLeg  21.4983 19.0014 5.97068
LeftFoot  -3.48818 -0.0385192 -1.1034
LeftToes  -13.015 2.32378e-006 -5.43956e-008
281
root  -44.4906 34.6443 19.0631 -173.978 64.819 -175.158
RightUpLeg  -9.27323 -19.9424 -9.82903
RightLeg  21.2498 -6.22359 -1.96721
RightFoot  15.6154 0.294607 -1.57702
RightToes  -43.1816 -0.244385 -0.33238
Spine  -1.86381 1.33835 -1.39271
Spine1  -3.69876 2.85091 -2.23929
HEad  -62.2155 -6.1648 -3.91948
LeftShoulder1  -1.94126e-019 -3.10601e-018 -2.51263e-017
LeftArm  -30.8006 5.2669 -50.9202
LeftForeArm  77.1091 -79.5881 -72.8017
LeftHand  -0.67052 0.749573 16.7763
RightShoulder  -4.96962e-017 0 -2.36833e-017
RightArm  -10.1485 -21.7351 76.2083
RightForeArm  48.6942 48.5445 9.12004
RightHand  -0.410263 -0.145166 -9.11265
LeftUpLeg  -7.59619 9.8095 0.663347
LeftLeg  21.67 19.9772 6.32695
LeftFoot  -3.75013 -0.047058 -1.27578
LeftToes  -12.1204 2.32378e-006 -5.43956e-008
282
root  -44.4754 34.6305 18.9281 -173.865 66.6669 -174.928
RightUpLeg  -9.56298 -20.5422 -9.64439
RightLeg  20.8667 -6.73913 -2.07947
RightFoot  15.7459 0.319072 -1.73292
RightToes  -42.2166 -0.236428 -0.327298
Spine  -1.74706 1.12458 -1.08867
Spine1  -3.44752 2.43771 -1.63013
HEad  -63.4172 -5.73951 -2.93282
LeftShoulder1  -1.94126e-019 -3.10601e-018 -2.51263e-017
LeftArm  -31.6175 5.51546 -50.5085
LeftForeArm  86.9265 -79.9319 -83.8748
LeftHand  -0.661757 0.7955 16.7197
RightShoulder  -4.96962e-017 0 -2.36833e-017
RightArm  -12.4381 -22.6507 75.2613
RightForeArm  47.2903 48.6487 9.2501
RightHand  -0.376532 -0.577921 -9.07198
LeftUpLeg  -7.13604 10.5176 0.424209
LeftLeg  21.7553 21.0569 6.68453
LeftFoot  -4.02255 -0.0573922 -1.47259
LeftToes  -11.3172 2.32378e-006 -5.43956e-008
283
root  -44.4581 34.6269 18.8096 -173.7 68.416 -174.746
RightUpLeg  -9.91176 -21.1167 -9.5134
RightLeg  20.4686 -6.70509 -2.01809
RightFoot  15.9696 0.325256 -1.74452
RightToes  -41.5672 -0.231122 -0.325685
Spine  -1.65449 1.04829 -0.846774
Spine1  -3.24864 2.30223 -1.15625
HEad  -64.0118 -4.97696 -2.10002
LeftShoulder1  -1.94126e-019 -3.10601e-018 -2.51263e-017
LeftArm  -32.181 5.87262 -51.2134
LeftForeArm  98.288 -79.9344 -95.4636
LeftHand  -0.709734 0.590339 17.1757
RightShoulder  -4.96962e-017 0 -2.36833e-017
RightArm  -14.6009 -23.7566 74.4694
RightForeArm  45.9759 48.4302 9.25194
RightHand  -0.341692 -1.18229 -9.34199
LeftUpLeg  -6.67914 11.3299 0.185833
LeftLeg  21.5697 21.9554 6.87795
LeftFoot  -4.19543 -0.0653263 -1.62176
LeftToes  -10.9258 2.32378e-006 -5.43956e-008
